Coordinates
version=1
nRows=49
nColumns=12
inDegrees=yes

Units are S.I. units (second, meters, Newtons, ...)
Angles are in degrees

endheader
time	SC_y	SC_z	SC_x	AC_y	AC_z	AC_x	GH_y	GH_z	GH_yy	EL_x	PS_y
       0.0              -18.71          22.56          59.09          48.62         -16.87          18.14          79.93          60.83          43.25          132.2           53.8
   0.03667              -18.72          22.56          59.09          48.62         -16.87          18.14          79.89          60.82          43.26          132.2          53.81
   0.07334              -18.72          22.56          59.09          48.62         -16.87          18.14          79.85          60.82          43.27          132.2          53.82
      0.11              -18.72          22.56          59.09          48.61         -16.86          18.14          79.81          60.81          43.29          132.2          53.83
    0.1467              -18.73          22.56          59.09          48.61         -16.86          18.14          79.77           60.8           43.3          132.2          53.84
    0.1834              -18.73          22.56          59.09          48.61         -16.85          18.14          79.72          60.79          43.31          132.2          53.85
      0.22              -18.74          22.56          59.09          48.61         -16.85          18.13          79.68          60.78          43.33          132.2          53.86
    0.2567              -18.74          22.56           59.1          48.61         -16.84          18.13          79.62          60.77          43.35          132.2          53.87
    0.2934              -18.75          22.56           59.1          48.61         -16.84          18.13          79.57          60.75          43.37          132.2          53.89
      0.33              -18.75          22.56           59.1           48.6         -16.83          18.13          79.51          60.74          43.39          132.2           53.9
    0.3667              -18.76          22.56           59.1           48.6         -16.82          18.13          79.44          60.73          43.41          132.2          53.92
    0.4034              -18.77          22.56           59.1           48.6         -16.82          18.12          79.37          60.71          43.43          132.1          53.94
    0.4401              -18.77          22.57          59.11           48.6         -16.81          18.12           79.3          60.69          43.45          132.1          53.95
    0.4767              -18.78          22.57          59.11          48.59          -16.8          18.12          79.21          60.68          43.48          132.1          53.97
    0.5134              -18.79          22.57          59.11          48.59         -16.79          18.11          79.13          60.66          43.51          132.1           54.0
    0.5501               -18.8          22.57          59.12          48.59         -16.78          18.11          79.03          60.64          43.54          132.1          54.02
    0.5868              -18.81          22.57          59.12          48.58         -16.77          18.11          78.93          60.62          43.57          132.1          54.04
    0.6234              -18.82          22.57          59.12          48.58         -16.76           18.1          78.81          60.59          43.61          132.1          54.07
    0.6601              -18.83          22.57          59.13          48.57         -16.75           18.1          78.69          60.56          43.65          132.1           54.1
    0.6968              -18.84          22.57          59.13          48.57         -16.73          18.09          78.55          60.53           43.7          132.1          54.14
    0.7334              -18.86          22.58          59.14          48.56         -16.72          18.09          78.41           60.5          43.74          132.1          54.17
    0.7701              -18.87          22.58          59.14          48.56          -16.7          18.08          78.24          60.47           43.8          132.1          54.21
    0.8068              -18.89          22.58          59.15          48.55         -16.68          18.08          78.06          60.43          43.86          132.1          54.26
    0.8435              -18.91          22.58          59.15          48.54         -16.66          18.07          77.86          60.39          43.92          132.1          54.31
    0.8801              -18.93          22.58          59.16          48.54         -16.64          18.06          77.64          60.34          43.99          132.1          54.36
    0.9168              -18.95          22.59          59.17          48.53         -16.61          18.05          77.39          60.28          44.07          132.1          54.42
    0.9535              -18.98          22.59          59.18          48.52         -16.58          18.04          77.11          60.22          44.16          132.1          54.49
    0.9901              -19.01          22.59          59.19           48.5         -16.55          18.03           76.8          60.16          44.27          132.1          54.57
     1.027              -19.04           22.6           59.2          48.49         -16.51          18.02          76.45          60.08          44.38          132.1          54.65
     1.063              -19.08           22.6          59.21          48.48         -16.47          18.01          76.05          59.99          44.51          132.1          54.75
       1.1              -19.12          22.61          59.23          48.46         -16.42          17.99          75.59          59.89          44.66          132.1          54.86
     1.137              -19.17          22.61          59.25          48.44         -16.37          17.97          75.06          59.78          44.83          132.0          54.99
     1.174              -19.23          22.62          59.26          48.42         -16.31          17.95          74.46          59.65          45.03          132.0          55.14
      1.21               -19.3          22.63          59.29          48.39         -16.23          17.92          73.75           59.5          45.26          132.0          55.31
     1.247              -19.37          22.64          59.31          48.36         -16.15          17.89          72.93          59.32          45.53          132.0          55.52
     1.284              -19.47          22.65          59.35          48.33         -16.05          17.86          71.96          59.11          45.84          132.0          55.75
      1.32              -19.58          22.66          59.38          48.29         -15.93          17.82           70.8          58.86          46.22          131.9          56.04
     1.357              -19.71          22.68          59.43          48.24         -15.78          17.77          69.42          58.56          46.67          131.9          56.38
     1.394              -19.86           22.7          59.48          48.17         -15.61          17.71          67.74           58.2          47.22          131.9          56.79
      1.43              -20.06          22.72          59.55           48.1          -15.4          17.64          65.69          57.75          47.88          131.8          57.29
     1.467               -20.3          22.75          59.63          48.01         -15.13          17.55          63.17          57.21           48.7          131.8          57.91
     1.504              -20.59          22.79          59.74          47.89         -14.81          17.44          60.02          56.53          49.73          131.7          58.68
      1.54              -20.97          22.84          59.86          47.75         -14.39          17.29          56.05          55.67          51.02          131.6          59.65
     1.577              -21.44           22.9          60.03          47.56         -13.87          17.12          51.01          54.58          52.66          131.5          60.89
     1.614              -22.05          22.97          60.24          47.33          -13.2          16.89          44.55          53.18          54.77          131.3          62.47
      1.65              -22.83          23.07          60.51          47.03         -12.34          16.59          36.26          51.39          57.46          131.1           64.5
     1.687              -23.83           23.2          60.85          46.64         -11.24          16.22          25.68           49.1          60.91          130.9           67.1
     1.724              -25.09          23.35          61.29          46.15         -9.859          15.74          12.37          46.22          65.24          130.6          70.36
      1.76              -26.62          23.54          61.82          45.56         -8.175          15.17         -3.843          42.72          70.52          130.2          74.34
